<svg width="16" height="15" viewBox="0 0 16 15" fill="none" xmlns="http://www.w3.org/2000/svg">
<path d="M11.5559 7.03184H2.84375C2.71943 7.03184 2.6002 7.08123 2.51229 7.16914C2.42439 7.25704 2.375 7.37627 2.375 7.50059C2.375 7.62491 2.42439 7.74414 2.51229 7.83205C2.6002 7.91996 2.71943 7.96934 2.84375 7.96934H11.5559L8.13687 11.3875C8.04886 11.4755 7.99941 11.5949 7.99941 11.7193C7.99941 11.8438 8.04886 11.9632 8.13687 12.0512C8.22489 12.1392 8.34427 12.1887 8.46875 12.1887C8.59323 12.1887 8.71261 12.1392 8.80062 12.0512L13.0194 7.83247C13.063 7.78892 13.0977 7.7372 13.1213 7.68025C13.1449 7.6233 13.1571 7.56225 13.1571 7.50059C13.1571 7.43893 13.1449 7.37788 13.1213 7.32094C13.0977 7.26399 13.063 7.21226 13.0194 7.16872L8.80062 2.94997C8.71261 2.86195 8.59323 2.8125 8.46875 2.8125C8.34427 2.8125 8.22489 2.86195 8.13687 2.94997C8.04886 3.03799 7.99941 3.15736 7.99941 3.28184C7.99941 3.40632 8.04886 3.5257 8.13687 3.61372L11.5559 7.03184Z" fill="#2E3940"/>
</svg>
