<svg width="32" height="32" viewBox="0 0 32 32" fill="none" xmlns="http://www.w3.org/2000/svg">
<g clip-path="url(#clip0_277_7)">
<path d="M16.885 16.9295L27.3062 16.9295C27.5294 16.9123 27.7379 16.8114 27.89 16.6471C28.042 16.4828 28.1265 16.2672 28.1265 16.0433C28.1265 15.8194 28.042 15.6038 27.89 15.4395C27.7379 15.2752 27.5294 15.1743 27.3062 15.157L16.885 15.157L16.8913 4.72957C16.8913 4.49286 16.7973 4.26584 16.6299 4.09846C16.4625 3.93108 16.2355 3.83705 15.9988 3.83705C15.7621 3.83705 15.5351 3.93108 15.3677 4.09846C15.2003 4.26584 15.1063 4.49286 15.1063 4.72957L15.1125 15.157L4.68507 15.1508C4.56293 15.1413 4.44015 15.1572 4.32445 15.1975C4.20874 15.2377 4.1026 15.3014 4.0127 15.3847C3.92279 15.4679 3.85106 15.5688 3.802 15.681C3.75294 15.7933 3.72762 15.9145 3.72762 16.037C3.72762 16.1595 3.75294 16.2807 3.802 16.3929C3.85106 16.5052 3.92279 16.6061 4.0127 16.6893C4.1026 16.7725 4.20874 16.8363 4.32445 16.8765C4.44015 16.9168 4.56293 16.9327 4.68507 16.9232L15.1125 16.9295L15.1125 27.3507C15.1298 27.5739 15.2307 27.7824 15.395 27.9345C15.5593 28.0865 15.7749 28.171 15.9988 28.171C16.2227 28.171 16.4383 28.0865 16.6026 27.9345C16.7669 27.7824 16.8678 27.5739 16.885 27.3507L16.885 16.9295Z" fill="#3A3A3A"/>
</g>
<defs>
<clipPath id="clip0_277_7">
<rect width="32" height="32" fill="white"/>
</clipPath>
</defs>
</svg>
