<svg width="49" height="60" viewBox="0 0 49 60" fill="none" xmlns="http://www.w3.org/2000/svg">
<g clip-path="url(#clip0_141_194)">
<mask id="mask0_141_194" style="mask-type:luminance" maskUnits="userSpaceOnUse" x="-1" y="-1" width="51" height="61">
<path d="M49.1902 -0.193359H-0.192383V59.9991H49.1902V-0.193359Z" fill="white"/>
</mask>
<g mask="url(#mask0_141_194)">
<path d="M16.9203 13.1484H16.9133C11.346 13.0579 5.80538 12.997 0.444079 12.9673C0.325525 12.9673 0.211827 12.9197 0.127996 12.8351C0.0441657 12.7504 -0.00292969 12.6356 -0.00292969 12.5159C-0.00292969 12.3962 0.0441657 12.2813 0.127996 12.1967C0.211827 12.112 0.325525 12.0645 0.444079 12.0645C5.80678 12.0928 11.3517 12.1536 16.9217 12.2456C17.0403 12.2456 17.154 12.2931 17.2378 12.3778C17.3217 12.4625 17.3688 12.5773 17.3688 12.697C17.3688 12.8167 17.3217 12.9316 17.2378 13.0162C17.154 13.1009 17.0403 13.1484 16.9217 13.1484H16.9203Z" fill="white"/>
<path d="M10.7376 47.1589C10.3746 47.1626 10.0128 47.115 9.66282 47.0174C8.64128 46.7216 7.84115 45.9999 7.28064 44.8706C5.75464 41.7998 6.09516 38.4573 6.45528 34.918C6.48471 34.6237 6.51554 34.3251 6.54497 34.0265L7.41937 25.1367L7.79491 19.0955C8.18386 12.8948 8.26009 6.67809 8.02332 0.469562C8.01856 0.408952 8.02596 0.347995 8.0451 0.290348C8.06424 0.232701 8.09471 0.179552 8.13469 0.134091C8.17467 0.0886292 8.22333 0.051792 8.27775 0.025789C8.33217 -0.000213865 8.39124 -0.0148465 8.4514 -0.0172308C8.51156 -0.0196152 8.57157 -0.00970223 8.62784 0.0119134C8.68412 0.033529 8.73549 0.0664017 8.77887 0.108559C8.82225 0.150717 8.85675 0.20129 8.88031 0.257245C8.90386 0.3132 8.91598 0.373383 8.91593 0.434184C9.15551 6.67329 9.08068 12.9207 8.69173 19.1521L8.30918 25.2117L7.43478 34.11C7.40582 34.41 7.37593 34.7086 7.3451 35.0058C6.98357 38.5563 6.67248 41.6243 8.08077 44.4588C8.52498 45.3532 9.14154 45.9192 9.91365 46.1428C11.0529 46.4725 12.5382 46.0805 14.3291 44.9782C15.2413 44.4121 16.218 43.7866 17.2536 43.1215C20.2747 41.18 23.6995 38.978 26.7584 37.6421C29.7011 36.353 32.3636 35.9723 36.2507 36.2836C40.3621 36.6133 45.8649 38.5209 48.8875 42.0375C48.9653 42.128 49.0044 42.246 48.9962 42.3655C48.9879 42.4851 48.9329 42.5964 48.8433 42.675C48.7538 42.7537 48.6369 42.7931 48.5186 42.7848C48.4002 42.7764 48.2899 42.7209 48.2121 42.6305C45.3703 39.3233 39.9823 37.4893 36.1807 37.1851C32.4589 36.8865 29.9169 37.2473 27.1144 38.4714C24.1198 39.7804 20.7273 41.9611 17.7342 43.8843C16.6958 44.5522 15.7135 45.1834 14.7915 45.7494C13.2739 46.6876 11.9161 47.1589 10.7376 47.1589Z" fill="white"/>
<path d="M17.2227 47.1536L12.8395 38.602C12.7958 38.5219 12.7628 38.4362 12.7414 38.3473C12.7302 38.2964 12.7008 38.2666 12.6616 38.2666C12.6431 38.2639 12.6242 38.2663 12.6069 38.2735C12.5897 38.2807 12.5747 38.2925 12.5635 38.3077C12.5481 38.3289 12.4976 38.4492 12.4023 38.6459L8.21531 47.1635L5.51224 52.5042C5.3651 52.7943 5.16612 52.9443 4.89427 52.9443C4.80883 52.9533 4.72273 52.9355 4.64757 52.8935C4.57242 52.8515 4.5118 52.7873 4.47389 52.7094C4.41215 52.5767 4.40021 52.4259 4.44026 52.2849L6.5618 48.157L7.04103 47.1664L11.5784 38.1237C11.7655 37.7444 11.9756 37.3772 12.2076 37.0242C12.3477 36.8076 12.506 36.6973 12.663 36.6973C12.8451 36.6973 13.0231 36.8176 13.1899 37.0567C13.3757 37.3345 13.5375 37.6281 13.6733 37.9341C13.9788 38.5228 14.4043 39.3492 14.9499 40.4134C15.4954 41.4776 16.1853 42.8219 17.0196 44.4465C17.8491 46.0692 18.7207 47.7848 19.6343 49.5933C20.548 51.399 21.002 52.3401 21.002 52.4094C21.0016 52.5386 20.9514 52.6625 20.8619 52.7547C20.8113 52.8091 20.7497 52.8516 20.6812 52.8795C20.6127 52.9074 20.539 52.9198 20.4653 52.916C20.3963 52.9143 20.3285 52.897 20.2669 52.8654C20.2053 52.8338 20.1515 52.7888 20.1094 52.7335C19.9398 52.5174 19.7946 52.2829 19.6764 52.0344L17.2283 47.148" fill="white"/>
<path d="M22.7009 53.1364C22.7017 53.2896 22.6524 53.4388 22.5607 53.5609C22.5282 53.6162 22.4826 53.6625 22.4281 53.6959C22.3736 53.7292 22.3119 53.7484 22.2482 53.7519C22.1791 53.7486 22.112 53.727 22.0537 53.6892C21.9954 53.6515 21.948 53.5989 21.9161 53.5368C21.8388 53.4122 21.7985 53.2679 21.7998 53.1208V42.455C21.7998 42.0927 21.9498 41.9102 22.2482 41.9102C22.3099 41.9122 22.3703 41.9287 22.4246 41.9584C22.4788 41.9882 22.5254 42.0303 22.5607 42.0814C22.6488 42.1858 22.6984 42.3178 22.7009 42.455V53.1364Z" fill="white"/>
<path d="M25.646 55.019C25.6396 55.3769 25.5215 55.7236 25.3083 56.0096C25.0856 56.3252 24.7922 56.5831 24.4521 56.7625C24.1319 56.9394 23.7732 57.0333 23.4082 57.0356C23.2641 57.021 23.1254 56.9726 23.0032 56.8941C22.9319 56.8647 22.8703 56.8154 22.8256 56.752C22.781 56.6886 22.7551 56.6137 22.751 56.5361C22.751 56.253 22.999 56.1044 23.4895 56.1044C23.7137 56.1044 23.9771 55.9827 24.2784 55.7422C24.4202 55.6377 24.5352 55.5005 24.6137 55.3419C24.6922 55.1833 24.7319 55.0081 24.7296 54.8308V48.4274C24.7296 48.0981 24.8861 47.933 25.199 47.9321C25.2611 47.9305 25.3228 47.9436 25.379 47.9704C25.4352 47.9972 25.4844 48.0369 25.5227 48.0863C25.6025 48.1817 25.6461 48.3025 25.646 48.4274V55.019ZM25.845 44.9575C25.8499 45.1412 25.7823 45.3193 25.6572 45.4528C25.596 45.5186 25.5216 45.5706 25.439 45.6052C25.3564 45.6399 25.2674 45.6564 25.178 45.6537C25.0868 45.6574 24.9959 45.6413 24.9113 45.6067C24.8267 45.572 24.7504 45.5196 24.6875 45.4528C24.5633 45.319 24.4968 45.1408 24.5026 44.9575C24.5067 44.7811 24.5792 44.6135 24.7044 44.4905C24.7638 44.4229 24.8368 44.3689 24.9184 44.3318C25 44.2947 25.0885 44.2755 25.178 44.2754C25.2664 44.2754 25.3539 44.2943 25.4345 44.3309C25.5152 44.3675 25.5873 44.4209 25.646 44.4877C25.7713 44.6115 25.8428 44.7805 25.845 44.9575Z" fill="white"/>
<path d="M35.4928 53.3158C35.4878 53.3718 35.4709 53.426 35.4433 53.4748C35.4158 53.5236 35.3782 53.5659 35.3331 53.5988C35.2561 53.6785 35.154 53.7285 35.0444 53.7403C34.7315 53.7403 34.5754 53.5988 34.5764 53.3158V49.4582C34.5823 49.3778 34.5688 49.2972 34.5371 49.2232C34.5053 49.1493 34.4563 49.0842 34.3942 49.0336C34.262 48.9381 34.1027 48.8884 33.9402 48.8921C33.6095 48.8921 32.9453 49.1935 31.9532 49.7964V53.3059C31.9532 53.5889 31.8042 53.7304 31.5062 53.7304C31.1932 53.7304 31.0367 53.5889 31.0367 53.3059V49.4766C31.0339 49.4009 31.0153 49.3266 30.9822 49.2586C30.9491 49.1906 30.9023 49.1303 30.8448 49.0817C30.7398 48.9705 30.596 48.905 30.444 48.8992C30.3193 48.8992 30.0236 49.0096 29.5696 49.236C29.1602 49.4277 28.7787 49.6753 28.436 49.9719V53.313C28.4376 53.3729 28.4274 53.4325 28.406 53.4884C28.3846 53.5443 28.3524 53.5953 28.3113 53.6385C28.265 53.6815 28.2106 53.7148 28.1515 53.7365C28.0923 53.7581 28.0294 53.7676 27.9665 53.7644C27.905 53.7679 27.8435 53.7569 27.7868 53.7323C27.7302 53.7078 27.68 53.6703 27.64 53.6229C27.5632 53.5388 27.5202 53.4288 27.5195 53.3144V48.4067C27.5198 48.3455 27.5323 48.285 27.5564 48.2288C27.5805 48.1726 27.6156 48.1219 27.6597 48.0798C27.7315 47.998 27.8319 47.9473 27.9399 47.9383C28.0053 47.9344 28.0708 47.9445 28.1321 47.968C28.1934 47.9915 28.249 48.0279 28.2953 48.0747C28.3417 48.1215 28.3777 48.1777 28.4009 48.2395C28.4242 48.3014 28.4342 48.3675 28.4304 48.4336V48.8426C29.3533 48.2397 30.0582 47.9383 30.5449 47.9383C30.9896 47.9383 31.4015 48.2614 31.7808 48.9077C31.8845 48.8426 32.019 48.7662 32.183 48.6558C32.3469 48.5454 32.5193 48.452 32.7015 48.3544C32.9069 48.2526 33.1195 48.1665 33.3377 48.0968C33.5308 48.0284 33.7329 47.9893 33.9374 47.9808C34.4783 47.9808 34.8721 48.135 35.1173 48.4478C35.3611 48.7533 35.4919 49.1351 35.4872 49.5275V53.3215" fill="white"/>
<path d="M41.902 49.2501V48.967H41.633C41.0869 48.9914 40.5518 49.1307 40.0621 49.376C39.4821 49.6385 38.9584 50.0129 38.5207 50.4784C38.0905 50.9411 37.8776 51.4223 37.8776 51.9176C37.8711 52.1473 37.9524 52.3707 38.1046 52.5417C38.1803 52.6269 38.2736 52.6943 38.378 52.739C38.4824 52.7838 38.5952 52.8048 38.7085 52.8006C39.2313 52.7912 39.7315 52.5836 40.1098 52.219C40.5534 51.816 40.9279 51.3417 41.2182 50.8152C41.502 50.3218 41.7286 49.7972 41.8936 49.2515M42.967 53.2733C42.967 53.3366 42.9547 53.3994 42.9306 53.4579C42.9066 53.5164 42.8713 53.5696 42.8269 53.6143C42.787 53.6631 42.7369 53.7022 42.6802 53.7289C42.6235 53.7556 42.5616 53.7691 42.499 53.7686C42.4347 53.7721 42.3705 53.7613 42.3109 53.7368C42.2513 53.7124 42.1978 53.6749 42.1543 53.6271C42.0712 53.5226 42.0275 53.3917 42.031 53.2577V51.3063C41.0893 52.9308 40.0005 53.744 38.7646 53.7459C38.1368 53.7459 37.6842 53.5705 37.4109 53.2153C37.1305 52.8426 36.9851 52.384 36.999 51.9162C36.999 51.3926 37.1933 50.8265 37.5819 50.218C37.9705 49.6095 38.5604 49.0949 39.3517 48.6741C40.1402 48.2552 41.0958 48.0449 42.2187 48.043C42.2969 48.0435 42.375 48.0482 42.4527 48.0571L42.733 48.0897C42.8106 48.1004 42.8887 48.1065 42.967 48.1081V53.2733Z" fill="white"/>
<path fill-rule="evenodd" clip-rule="evenodd" d="M48.5545 48.6999C48.5433 48.3885 48.0374 48.1338 47.5469 48.0574C46.681 47.9258 45.7897 48.0362 45.0919 48.7805C44.8404 49.0414 44.6738 49.3737 44.6147 49.7329C44.5556 50.0921 44.6067 50.461 44.7612 50.79C45.0302 51.3914 45.7925 51.6787 46.6571 51.8882C47.1826 52.0537 47.1672 52.791 46.4049 52.8264C46.082 52.8414 45.7599 52.7819 45.4632 52.6523C44.8705 52.416 44.5944 53.1872 44.9195 53.3896C45.7687 53.9174 46.7412 53.9882 47.582 53.3358C48.036 52.9849 48.1425 52.3622 47.8875 51.7141C47.7473 51.3518 47.3662 51.148 46.9584 50.991C46.2003 50.7589 45.417 50.5325 45.4997 49.9466C45.5782 49.3919 46.311 48.847 47.0915 48.956C47.3359 48.9841 47.5732 49.0565 47.7922 49.1697C48.1467 49.3777 48.4718 49.3409 48.5475 48.7013" fill="white"/>
<path fill-rule="evenodd" clip-rule="evenodd" d="M46.2964 46.7958L44.975 45.334C44.6569 45.0722 43.9647 45.576 44.3402 45.9737L46.2544 48.0001C46.3178 48.0412 46.3933 48.0588 46.4681 48.05C46.543 48.0413 46.6125 48.0066 46.6649 47.952L48.6085 45.9595C48.8692 45.6015 48.2834 45.1274 47.8658 45.46L46.5528 46.7958C46.4744 46.919 46.3609 46.8708 46.2964 46.7958Z" fill="white"/>
<path d="M5.05522 58.0082C4.88067 57.9945 4.70706 58.0447 4.56617 58.1497C4.50717 58.1989 4.45972 58.2607 4.42724 58.3307C4.39477 58.4007 4.37809 58.4771 4.3784 58.5544C4.3784 58.8261 4.53254 58.9789 4.86185 59.2039C5.11408 59.3737 5.17573 59.487 5.17573 59.6101C5.17085 59.6823 5.13939 59.7501 5.08753 59.8001C5.03567 59.8501 4.96717 59.8788 4.89548 59.8804C4.80518 59.8765 4.71781 59.847 4.64342 59.7952C4.56904 59.7433 4.51069 59.6713 4.47509 59.5874C4.42745 59.494 4.3798 59.4247 4.35318 59.4247C4.32656 59.4247 4.30273 59.47 4.30273 59.4912C4.30722 59.6057 4.3251 59.7192 4.35598 59.8294C4.37764 59.8626 4.40577 59.891 4.43866 59.9129C4.58012 59.9702 4.73196 59.9967 4.88427 59.9907C5.03097 59.99 5.17528 59.9531 5.30465 59.8832C5.38355 59.8383 5.4498 59.7737 5.49712 59.6957C5.54445 59.6177 5.57128 59.5288 5.5751 59.4374C5.5751 59.2959 5.55688 59.0865 5.12669 58.8261C4.85764 58.6619 4.73573 58.5629 4.73573 58.4016C4.73737 58.3261 4.76714 58.254 4.81909 58.1997C4.87103 58.1454 4.94134 58.1129 5.01599 58.1086C5.10784 58.1052 5.19737 58.1382 5.26541 58.2006C5.32184 58.2606 5.36317 58.3334 5.38592 58.4129C5.39341 58.4322 5.40597 58.4492 5.42226 58.4619C5.43855 58.4746 5.45796 58.4826 5.47841 58.485C5.49382 58.485 5.50503 58.4582 5.50503 58.4129C5.50503 58.4016 5.47561 58.1468 5.47561 58.1143C5.46844 58.0899 5.45488 58.0679 5.43637 58.0506C5.31062 58.0257 5.18323 58.0101 5.05522 58.0039" fill="white"/>
<path d="M5.6748 58.0928C5.6748 58.1282 5.71824 58.141 5.75468 58.1494C5.89481 58.1891 5.92704 58.2457 5.98869 58.3858C6.12882 58.7367 6.33761 59.2037 6.4385 59.4754C6.52258 59.6948 6.57863 59.8646 6.59264 59.9184C6.59264 59.9339 6.62627 59.999 6.66691 59.999C6.70755 59.999 6.74118 59.9481 6.75379 59.9155C6.80984 59.7542 6.89392 59.5448 6.94857 59.3976C7.12653 58.9575 7.36055 58.482 7.39418 58.407C7.47405 58.2358 7.5343 58.182 7.67443 58.1494C7.72768 58.1381 7.75431 58.1169 7.75431 58.09C7.75431 58.0631 7.71927 58.0447 7.66603 58.0447C7.61278 58.0447 7.48526 58.0575 7.39978 58.0575C7.3143 58.0575 7.24564 58.0447 7.13774 58.0447C7.0915 58.0447 7.06067 58.0716 7.06067 58.0928C7.06067 58.1141 7.09991 58.1353 7.12933 58.1466C7.24144 58.1947 7.32271 58.1947 7.25965 58.3744C7.1966 58.5542 6.88411 59.2929 6.86029 59.3325C6.86029 59.3325 6.83927 59.3438 6.83366 59.3325C6.77901 59.2391 6.46513 58.4636 6.42449 58.3235C6.39086 58.2188 6.39086 58.1891 6.51277 58.1494C6.56602 58.1353 6.58704 58.1112 6.58704 58.0843C6.58704 58.0575 6.55481 58.0447 6.51557 58.0447C6.44831 58.0447 6.23532 58.0546 6.13583 58.0546C5.9957 58.0546 5.82194 58.0391 5.76309 58.0391C5.70423 58.0391 5.68041 58.0603 5.68041 58.0872" fill="white"/>
<path d="M8.43459 58.0589C8.29447 58.0589 7.99319 58.0489 7.85306 58.0489C7.81523 58.0489 7.75918 58.0673 7.75918 58.0942C7.75918 58.1211 7.79421 58.1423 7.85727 58.1537C7.98478 58.1749 8.0044 58.2442 8.01141 58.3433C8.01841 58.4424 8.01141 58.5994 8.01141 58.9532C8.01141 59.307 7.99599 59.4924 7.98758 59.6155C7.97497 59.7768 7.94555 59.8122 7.79421 59.849C7.74096 59.8603 7.70312 59.8844 7.70312 59.9141C7.70312 59.9438 7.75357 59.9537 7.80962 59.9537C7.91051 59.9537 7.93153 59.9381 8.14733 59.9381L9.14644 59.9509C9.16046 59.9509 9.21791 59.9353 9.22912 59.9084C9.27475 59.791 9.31359 59.671 9.34543 59.549C9.34543 59.5278 9.35383 59.4598 9.3188 59.4598C9.28377 59.4598 9.26135 59.4924 9.21511 59.573C9.16382 59.6694 9.08394 59.7471 8.9867 59.7952C8.90038 59.8232 8.80934 59.8333 8.71905 59.8249C8.64442 59.8247 8.56992 59.8186 8.49625 59.8065C8.47954 59.8002 8.46464 59.7898 8.45291 59.7762C8.44117 59.7626 8.43295 59.7463 8.42899 59.7287C8.42417 59.6481 8.42417 59.5673 8.42899 59.4867C8.42201 59.3571 8.42201 59.2272 8.42899 59.0976C8.42899 59.0976 8.46122 59.0551 8.47243 59.0551C8.57052 59.0551 8.67702 59.0551 8.7723 59.0636C8.86759 59.0721 8.91243 59.1032 8.94466 59.2292C8.95307 59.2617 8.97969 59.2971 9.00351 59.2971C9.02734 59.2971 9.05116 59.2589 9.04555 59.2051C9.03656 59.1347 9.03235 59.0638 9.03294 58.9928C9.03294 58.9263 9.03294 58.8726 9.04555 58.7919C9.04555 58.7494 9.03855 58.6985 9.01332 58.6985C8.9881 58.6985 8.96288 58.7381 8.94186 58.7834C8.88441 58.9079 8.89702 58.9249 8.71905 58.9249H8.46122C8.45273 58.9239 8.44478 58.9202 8.43849 58.9144C8.4322 58.9085 8.42789 58.9008 8.42619 58.8924C8.42619 58.673 8.43459 58.3263 8.4374 58.2541C8.4402 58.182 8.46122 58.1678 8.47383 58.1678C8.61011 58.1615 8.74668 58.1686 8.8816 58.189C8.93906 58.2004 9.03014 58.2513 9.06937 58.4225C9.06937 58.4551 9.1016 58.5004 9.12823 58.5004C9.15485 58.5004 9.17867 58.4551 9.17867 58.4126C9.17867 58.3702 9.17867 58.0872 9.17867 58.0744C9.17867 58.0617 9.15205 58.0306 9.13944 58.0334C9.05428 58.0484 8.96805 58.0565 8.8816 58.0574H8.43459" fill="white"/>
<path d="M10.3472 58.0601C10.2337 58.0601 9.76566 58.0474 9.70961 58.0417C9.65958 58.0433 9.61041 58.0284 9.56948 57.9993C9.55687 57.9781 9.53865 57.9512 9.51903 57.9512C9.49941 57.9512 9.46859 58.0092 9.46859 58.0177C9.46859 58.1592 9.41113 58.3672 9.41113 58.4252C9.41113 58.455 9.42655 58.4932 9.46158 58.4932C9.49661 58.4932 9.49101 58.4634 9.53024 58.404C9.56088 58.3487 9.59554 58.2957 9.63394 58.2455C9.67453 58.2115 9.72257 58.1877 9.77407 58.1762C9.84833 58.1762 10.0417 58.1762 10.095 58.1889C10.1047 58.1903 10.1137 58.1952 10.1201 58.2028C10.1266 58.2103 10.1301 58.22 10.13 58.23C10.13 58.2809 10.13 58.404 10.13 58.5738C10.13 58.8017 10.116 59.3918 10.1034 59.5644C10.0922 59.7682 10.0739 59.8007 9.89037 59.8474C9.85814 59.8559 9.81891 59.8828 9.81891 59.9154C9.81891 59.9479 9.85814 59.9522 9.91419 59.9522C9.97024 59.9522 10.2337 59.9338 10.2995 59.9338L10.7886 59.9465C10.8208 59.9465 10.8685 59.9281 10.8685 59.904C10.8638 59.8882 10.8549 59.8739 10.8428 59.8627C10.8307 59.8515 10.8159 59.8438 10.7998 59.8404C10.5924 59.7993 10.5658 59.73 10.5602 59.6522C10.549 59.4852 10.542 59.1498 10.542 58.8031C10.542 58.5455 10.542 58.3785 10.542 58.237C10.5415 58.2283 10.5443 58.2197 10.5497 58.2129C10.5551 58.2061 10.5629 58.2016 10.5714 58.2002C10.6625 58.1889 10.8264 58.1861 10.9063 58.1861C11.0366 58.1861 11.0717 58.2186 11.1081 58.3984C11.1221 58.4762 11.1431 58.4903 11.1641 58.4903C11.1852 58.4903 11.223 58.4309 11.223 58.404C11.2332 58.2861 11.2529 58.1692 11.2818 58.0545C11.2945 58.012 11.265 57.9724 11.2496 57.9724C11.2342 57.9724 11.223 57.9851 11.1992 57.9993C11.1237 58.0325 11.0418 58.048 10.9595 58.0446C10.8727 58.0516 10.5055 58.0545 10.3346 58.0545" fill="white"/>
<path d="M11.7185 58.9271C11.7185 59.1818 11.7185 59.4931 11.7059 59.6063C11.6933 59.7196 11.6765 59.8016 11.5462 59.8342C11.4817 59.8526 11.4551 59.8724 11.4551 59.8936C11.4551 59.9148 11.4789 59.9474 11.556 59.9474C11.6653 59.9474 11.783 59.9389 11.8699 59.9389C12.01 59.9389 12.2132 59.9502 12.3141 59.9545C12.3491 59.9545 12.4122 59.9474 12.4122 59.912C12.4122 59.8766 12.3827 59.8582 12.3295 59.8427C12.1725 59.7988 12.1543 59.7719 12.1389 59.5894C12.1389 59.5016 12.1305 59.3969 12.1305 58.9398C12.1305 58.4827 12.1305 58.3978 12.1389 58.337C12.1372 58.3147 12.1399 58.2923 12.1469 58.2711C12.154 58.2499 12.1651 58.2304 12.1797 58.2136C12.1944 58.1968 12.2122 58.1832 12.2321 58.1735C12.2521 58.1639 12.2737 58.1583 12.2958 58.1573C12.3463 58.1488 12.3939 58.1247 12.3939 58.0922C12.3939 58.0596 12.3435 58.0469 12.293 58.0469C12.1893 58.0469 12.0716 58.0596 11.9259 58.0596C11.8278 58.0596 11.6709 58.0469 11.5784 58.0469C11.5195 58.0469 11.4719 58.0681 11.4719 58.0922C11.4719 58.1162 11.4929 58.1374 11.5672 58.1573C11.7073 58.194 11.7073 58.2422 11.7073 58.3851C11.7073 58.528 11.7073 58.7898 11.7073 58.9271" fill="white"/>
<path d="M13.3082 57.9134C13.3577 57.8932 13.4022 57.8623 13.4386 57.8228L13.7188 57.5723C13.7931 57.4973 13.7805 57.4521 13.7538 57.4521C13.718 57.4581 13.6831 57.469 13.6501 57.4846C13.5465 57.5426 13.4133 57.5936 13.3475 57.6374C13.3381 57.643 13.3275 57.646 13.3166 57.646C13.3058 57.646 13.2951 57.643 13.2858 57.6374C13.2003 57.5865 13.0966 57.5299 12.9901 57.4761C12.9559 57.4612 12.9194 57.4521 12.8822 57.4492C12.7996 57.4492 12.8682 57.5384 12.8822 57.5483C13.0126 57.6771 13.1233 57.7789 13.1625 57.8228C13.1991 57.8666 13.2479 57.8982 13.3026 57.9134M13.3531 58.0096C13.1785 57.9959 13.0049 58.0462 12.864 58.1511C12.805 58.2003 12.7576 58.2622 12.7251 58.3322C12.6926 58.4022 12.6759 58.4786 12.6763 58.5558C12.6763 58.8276 12.8304 58.9804 13.1597 59.2054C13.4119 59.3752 13.4736 59.4884 13.4736 59.6115C13.4687 59.6838 13.4372 59.7516 13.3854 59.8016C13.3335 59.8516 13.265 59.8802 13.1933 59.8818C13.103 59.878 13.0157 59.8485 12.9413 59.7966C12.8669 59.7448 12.8085 59.6728 12.7729 59.5889C12.7253 59.4955 12.6777 59.4262 12.651 59.4262C12.6244 59.4262 12.6006 59.4714 12.6006 59.4927C12.6051 59.6071 12.6229 59.7207 12.6538 59.8309C12.676 59.8641 12.7046 59.8925 12.7379 59.9144C12.8789 59.9717 13.0303 59.9982 13.1821 59.9922C13.3288 59.9915 13.4731 59.9545 13.6025 59.8847C13.6814 59.8397 13.7476 59.7752 13.795 59.6972C13.8423 59.6192 13.8691 59.5303 13.8729 59.4389C13.8729 59.2974 13.8547 59.0879 13.4245 58.8276C13.1555 58.6634 13.0336 58.5643 13.0336 58.403C13.0352 58.3275 13.065 58.2555 13.1169 58.2012C13.1689 58.1469 13.2392 58.1143 13.3138 58.1101C13.4057 58.1067 13.4952 58.1397 13.5633 58.2021C13.6197 58.2623 13.6615 58.335 13.6852 58.4143C13.6923 58.4337 13.7046 58.4507 13.7206 58.4634C13.7367 58.4761 13.756 58.4841 13.7763 58.4865C13.7917 58.4865 13.8029 58.4596 13.8029 58.4143C13.8029 58.403 13.7735 58.1483 13.7735 58.1157C13.7662 58.0917 13.7532 58.0698 13.7356 58.0521C13.6094 58.0272 13.4815 58.0116 13.3531 58.0054" fill="white"/>
<path d="M14.9741 58.0601C14.8606 58.0601 14.3926 58.0474 14.3366 58.0417C14.2865 58.0433 14.2374 58.0284 14.1964 57.9993C14.1838 57.9781 14.1656 57.9512 14.146 57.9512C14.1264 57.9512 14.0955 58.0092 14.0955 58.0177C14.0885 58.1592 14.0381 58.3672 14.0381 58.4252C14.0381 58.455 14.0535 58.4932 14.0885 58.4932C14.1236 58.4932 14.1194 58.4634 14.1572 58.404C14.1883 58.349 14.223 58.296 14.2609 58.2455C14.3015 58.2115 14.3495 58.1877 14.401 58.1762C14.4753 58.1762 14.6687 58.1762 14.7219 58.1889C14.7317 58.1903 14.7406 58.1952 14.7471 58.2028C14.7535 58.2103 14.757 58.22 14.7569 58.23C14.7569 58.2809 14.7569 58.404 14.7569 58.5738C14.7569 58.8017 14.7429 59.3918 14.7303 59.5644C14.7191 59.7682 14.7009 59.8007 14.5173 59.8474C14.4851 59.8559 14.4459 59.8828 14.4459 59.9154C14.4459 59.9479 14.4851 59.9522 14.5411 59.9522C14.5972 59.9522 14.8606 59.9338 14.9265 59.9338L15.4155 59.9465C15.4478 59.9465 15.4954 59.9281 15.4954 59.904C15.4907 59.8882 15.4819 59.8739 15.4698 59.8627C15.4577 59.8515 15.4428 59.8438 15.4268 59.8404C15.2194 59.7993 15.1927 59.73 15.1871 59.6522C15.1759 59.4852 15.1689 59.1498 15.1689 58.8031C15.1689 58.5455 15.1689 58.3785 15.1689 58.237C15.1685 58.2283 15.1712 58.2197 15.1767 58.2129C15.1821 58.2061 15.1898 58.2016 15.1983 58.2002C15.2894 58.1889 15.4534 58.1861 15.5333 58.1861C15.6636 58.1861 15.6986 58.2186 15.735 58.3984C15.7491 58.4762 15.7701 58.4903 15.7911 58.4903C15.8121 58.4903 15.8499 58.4309 15.8499 58.404C15.86 58.286 15.8801 58.169 15.9102 58.0545C15.9214 58.012 15.892 57.9724 15.8766 57.9724C15.8612 57.9724 15.8499 57.9851 15.8261 57.9993C15.7507 58.0325 15.6687 58.048 15.5865 58.0446C15.501 58.0516 15.1325 58.0545 14.9615 58.0545" fill="white"/>
<path d="M16.7637 58.0599C16.6236 58.0599 16.3223 58.05 16.1836 58.05C16.1443 58.05 16.0883 58.0684 16.0883 58.0953C16.0883 58.1222 16.1233 58.1434 16.1864 58.1547C16.3139 58.176 16.3349 58.2453 16.3405 58.3444C16.3461 58.4434 16.3405 58.6005 16.3405 58.9543C16.3405 59.3081 16.3251 59.4935 16.3167 59.6166C16.3055 59.7779 16.2746 59.8133 16.1247 59.8501C16.0715 59.8614 16.0322 59.8854 16.0322 59.9152C16.0322 59.9449 16.0827 59.9548 16.1387 59.9548C16.2396 59.9548 16.2606 59.9392 16.4764 59.9392L17.4755 59.952C17.491 59.952 17.547 59.9364 17.5582 59.9095C17.6045 59.7923 17.6434 59.6722 17.6745 59.5501C17.6745 59.5288 17.6829 59.4609 17.6479 59.4609C17.6129 59.4609 17.5919 59.4935 17.5442 59.5741C17.4933 59.6707 17.4133 59.7485 17.3158 59.7963C17.2299 59.8242 17.1394 59.8344 17.0496 59.826C16.9741 59.827 16.8986 59.8218 16.824 59.8104C16.807 59.8042 16.7919 59.7938 16.7799 59.7802C16.768 59.7667 16.7595 59.7503 16.7553 59.7326C16.7512 59.652 16.7512 59.5712 16.7553 59.4906C16.7553 59.4029 16.7553 59.1977 16.7553 59.1015C16.7553 59.1015 16.7875 59.059 16.8001 59.059C16.8982 59.059 17.0047 59.059 17.1 59.0675C17.1953 59.076 17.2401 59.1071 17.271 59.2331C17.2794 59.2656 17.3074 59.301 17.3298 59.301C17.3522 59.301 17.3775 59.2628 17.3719 59.209C17.364 59.1385 17.3603 59.0677 17.3606 58.9967C17.3606 58.9302 17.3606 58.8765 17.3719 58.7958C17.3719 58.7533 17.3719 58.7024 17.3396 58.7024C17.3074 58.7024 17.2892 58.742 17.2682 58.7873C17.2121 58.9118 17.2233 58.9288 17.0454 58.9288H16.7917C16.7831 58.9279 16.7749 58.9242 16.7684 58.9184C16.7618 58.9126 16.7573 58.9048 16.7553 58.8963C16.7553 58.6769 16.7637 58.3302 16.7679 58.258C16.7721 58.1859 16.7917 58.1717 16.8029 58.1717C16.9397 58.1655 17.0767 58.1726 17.2121 58.193C17.2682 58.2043 17.3606 58.2552 17.3985 58.4265C17.3985 58.459 17.4307 58.5043 17.4573 58.5043C17.484 58.5043 17.5078 58.459 17.5078 58.4165C17.5078 58.3741 17.5078 58.0911 17.5078 58.0783C17.5078 58.0656 17.4812 58.0345 17.4699 58.0373C17.3848 58.0523 17.2985 58.0603 17.2121 58.0613H16.7637" fill="white"/>
<path d="M19.5916 58.0096C19.299 58.0027 19.0132 58.0987 18.783 58.2813C18.6792 58.3667 18.5959 58.4747 18.5393 58.5972C18.4828 58.7198 18.4545 58.8537 18.4565 58.9889C18.4488 59.1288 18.4722 59.2687 18.5251 59.3982C18.5779 59.5278 18.6589 59.6437 18.762 59.7375C18.9899 59.9147 19.2719 60.0058 19.5593 59.995C19.6182 59.995 19.8858 59.9568 20.0106 59.9328C20.1013 59.9166 20.1912 59.8953 20.2796 59.8691C20.2978 59.8691 20.3244 59.8394 20.3244 59.821C20.3227 59.8029 20.3142 59.7862 20.3006 59.7743C20.2558 59.7262 20.2502 59.7191 20.2502 59.6809C20.2502 59.5578 20.2614 59.3483 20.2656 59.3129C20.2698 59.2776 20.2656 59.2252 20.3693 59.1983C20.4043 59.1898 20.4365 59.1573 20.4365 59.1417C20.4365 59.1261 20.4155 59.0936 20.3567 59.0936C20.239 59.0936 20.0484 59.112 19.9769 59.112C19.9055 59.112 19.7583 59.1007 19.6182 59.1007C19.5593 59.1007 19.5145 59.1247 19.5145 59.1445C19.5145 59.1643 19.5593 59.2026 19.6042 59.2054C19.7849 59.2224 19.8088 59.286 19.827 59.3469C19.8366 59.4276 19.8404 59.509 19.8382 59.5903C19.8382 59.7219 19.82 59.7969 19.7793 59.8266C19.7352 59.8591 19.6826 59.8778 19.628 59.8804C19.5064 59.876 19.3882 59.8386 19.2858 59.7721C19.1835 59.7057 19.1008 59.6125 19.0465 59.5026C18.9613 59.3378 18.9207 59.1533 18.9288 58.9676C18.9288 58.5035 19.1768 58.1087 19.5916 58.1087C19.6808 58.1086 19.769 58.1272 19.8507 58.1633C19.9325 58.1993 20.006 58.252 20.0666 58.3181C20.1138 58.3836 20.1524 58.4549 20.1815 58.5304C20.1969 58.5757 20.2235 58.611 20.239 58.611C20.2544 58.611 20.295 58.5686 20.295 58.5332C20.295 58.4073 20.253 58.2502 20.2474 58.1554C20.2474 58.12 20.2263 58.0874 20.2109 58.0874C20.1636 58.0852 20.1167 58.0781 20.0708 58.0662C19.915 58.0238 19.7543 58.0029 19.593 58.0039" fill="white"/>
<path d="M21.6679 58.1193C21.8058 58.1274 21.9363 58.1845 22.0365 58.2806C22.2194 58.4987 22.3189 58.7759 22.3167 59.0617C22.3298 59.3162 22.2528 59.567 22.0995 59.7693C22.0302 59.8392 21.9368 59.8793 21.8389 59.8811C21.4185 59.8811 21.1719 59.3872 21.1719 58.9202C21.1719 58.5608 21.2784 58.3542 21.368 58.2636C21.4451 58.18 21.5509 58.1294 21.6637 58.1221M21.738 58.0117C21.5061 58.0164 21.2814 58.0935 21.0948 58.2325C20.9752 58.3192 20.8785 58.4342 20.813 58.5674C20.7476 58.7006 20.7154 58.848 20.7193 58.9966C20.7152 59.1228 20.7359 59.2485 20.7801 59.3665C20.8244 59.4846 20.8913 59.5926 20.9771 59.6844C21.0776 59.7868 21.1979 59.8672 21.3305 59.9207C21.463 59.9743 21.6051 59.9998 21.7478 59.9957C21.9934 59.9941 22.2317 59.9111 22.426 59.7594C22.5412 59.6648 22.633 59.5445 22.6943 59.408C22.7556 59.2714 22.7846 59.1224 22.7791 58.9726C22.7791 58.5353 22.4344 58.0117 21.738 58.0117Z" fill="white"/>
<path d="M23.813 58.0087C23.6385 57.995 23.4649 58.0452 23.324 58.1502C23.265 58.1994 23.2175 58.2613 23.1851 58.3313C23.1526 58.4012 23.1359 58.4776 23.1362 58.5549C23.1362 58.8266 23.2904 58.9795 23.6197 59.2045C23.8719 59.3743 23.9335 59.4875 23.9335 59.6106C23.9303 59.6834 23.8993 59.7522 23.8471 59.8026C23.7949 59.8529 23.7255 59.881 23.6533 59.8809C23.563 59.8771 23.4756 59.8475 23.4012 59.7957C23.3269 59.7439 23.2685 59.6719 23.2329 59.588C23.1853 59.4946 23.1376 59.4252 23.111 59.4252C23.0844 59.4252 23.0605 59.4705 23.0605 59.4917C23.065 59.6062 23.0829 59.7197 23.1138 59.83C23.136 59.8632 23.1646 59.8916 23.1979 59.9135C23.3388 59.9708 23.4902 59.9973 23.6421 59.9913C23.7888 59.9907 23.9332 59.9538 24.0625 59.8837C24.1406 59.8386 24.2062 59.7741 24.253 59.6964C24.2998 59.6187 24.3263 59.5303 24.3301 59.4394C24.3301 59.2979 24.3119 59.0884 23.8817 58.828C23.6127 58.6639 23.4907 58.5648 23.4907 58.4035C23.4924 58.328 23.5221 58.2559 23.5741 58.2017C23.626 58.1474 23.6964 58.1148 23.771 58.1106C23.8628 58.1072 23.9524 58.1402 24.0204 58.2026C24.0769 58.2628 24.1186 58.3355 24.1423 58.4148C24.1494 58.4342 24.1617 58.4512 24.1778 58.4639C24.1939 58.4766 24.2131 58.4846 24.2334 58.487C24.2488 58.487 24.26 58.4601 24.26 58.4148C24.26 58.4035 24.2306 58.1488 24.2306 58.1162C24.2234 58.0922 24.2104 58.0703 24.1928 58.0526C24.0665 58.0277 23.9387 58.0121 23.8102 58.0059" fill="white"/>
<path d="M25.6896 58.6208C25.6896 58.9152 25.5228 59.0708 25.4093 59.0708H25.3799C25.3561 59.0708 25.3322 59.0906 25.3322 59.1034C25.3322 59.1161 25.3561 59.1472 25.4009 59.1685C25.4504 59.1809 25.5012 59.1871 25.5522 59.1869C25.6836 59.1769 25.8098 59.1304 25.9166 59.0524C25.9739 58.9984 26.0199 58.9332 26.0518 58.8607C26.0837 58.7883 26.1008 58.7101 26.1021 58.6309C26.1034 58.5517 26.0889 58.473 26.0594 58.3995C26.0299 58.326 25.9861 58.2593 25.9306 58.2034C25.8059 58.0746 25.6027 58.0293 25.314 58.0293C25.1837 58.0293 24.9357 58.0562 24.7129 58.0562C24.6802 58.0539 24.6474 58.0539 24.6148 58.0562C24.5797 58.0562 24.5531 58.0831 24.5531 58.1071C24.5531 58.1312 24.5825 58.1482 24.612 58.151C24.7717 58.1722 24.7983 58.2232 24.8082 58.3279C24.8082 58.4057 24.8082 59.0949 24.8082 59.1897C24.8082 59.3425 24.7983 59.5138 24.7899 59.6142C24.7787 59.7558 24.7395 59.7968 24.6064 59.8293C24.5769 59.8378 24.5293 59.8661 24.5293 59.8859C24.5293 59.9058 24.5741 59.9369 24.654 59.9369C24.7339 59.9369 24.8992 59.9284 24.9889 59.9284C25.1164 59.9284 25.3182 59.9468 25.3953 59.9468C25.4359 59.9468 25.4836 59.9256 25.4836 59.9015C25.4836 59.8775 25.4597 59.8477 25.4009 59.835C25.2173 59.794 25.2145 59.7218 25.2117 59.552C25.2117 59.4798 25.2117 59.31 25.2117 59.0411C25.2117 58.6987 25.2117 58.3335 25.2117 58.2713C25.2117 58.209 25.2257 58.1722 25.2355 58.1637C25.2584 58.148 25.285 58.1387 25.3126 58.1368C25.5368 58.1368 25.6769 58.3944 25.6769 58.618" fill="white"/>
<path d="M26.9995 58.0599C26.8593 58.0599 26.5581 58.05 26.4179 58.05C26.3801 58.05 26.3227 58.0684 26.3227 58.0953C26.3227 58.1222 26.3591 58.1434 26.4207 58.1547C26.5483 58.176 26.5693 58.2453 26.5749 58.3444C26.5805 58.4434 26.5749 58.6005 26.5749 58.9543C26.5749 59.3081 26.5609 59.4935 26.5511 59.6166C26.5399 59.7779 26.5104 59.8133 26.3591 59.8501C26.3058 59.8614 26.2666 59.8854 26.2666 59.9152C26.2666 59.9449 26.317 59.9548 26.3745 59.9548C26.474 59.9548 26.495 59.9392 26.7122 59.9392L27.7113 59.952C27.7253 59.952 27.7814 59.9364 27.794 59.9095C27.8392 59.7921 27.8776 59.672 27.9089 59.5501C27.9089 59.5288 27.9187 59.4609 27.8823 59.4609C27.8458 59.4609 27.8262 59.4935 27.7786 59.5741C27.7281 59.6711 27.648 59.749 27.5502 59.7963C27.4643 59.8242 27.3738 59.8344 27.2839 59.826C27.2084 59.827 27.133 59.8218 27.0583 59.8104C27.0416 59.8041 27.0267 59.7937 27.015 59.7801C27.0032 59.7665 26.995 59.7502 26.9911 59.7326C26.9863 59.652 26.9863 59.5712 26.9911 59.4906C26.9911 59.4029 26.9911 59.1977 26.9911 59.1015C26.9911 59.1015 27.0247 59.059 27.0359 59.059C27.134 59.059 27.2405 59.059 27.3358 59.0675C27.4311 59.076 27.4689 59.1071 27.5081 59.2331C27.5165 59.2656 27.5432 59.301 27.567 59.301C27.5908 59.301 27.6146 59.2628 27.6076 59.209C27.5998 59.1385 27.596 59.0677 27.5964 58.9967C27.5964 58.9302 27.5964 58.8765 27.6076 58.7958C27.6076 58.7533 27.6076 58.7024 27.5754 58.7024C27.5432 58.7024 27.525 58.742 27.5039 58.7873C27.4479 58.9118 27.4605 58.9288 27.2825 58.9288H27.0275C27.0188 58.9279 27.0107 58.9242 27.0041 58.9184C26.9976 58.9126 26.993 58.9048 26.9911 58.8963C26.9911 58.6769 27.0009 58.3302 27.0037 58.258C27.0065 58.1859 27.0275 58.1717 27.0387 58.1717C27.1755 58.1655 27.3125 58.1726 27.4479 58.193C27.5039 58.2043 27.5964 58.2552 27.6343 58.4265C27.6413 58.459 27.6679 58.5043 27.6945 58.5043C27.7211 58.5043 27.745 58.459 27.745 58.4165C27.745 58.3741 27.745 58.0911 27.745 58.0783C27.745 58.0656 27.7183 58.0345 27.7057 58.0373C27.6206 58.0524 27.5343 58.0604 27.4479 58.0613H27.0037" fill="white"/>
<path d="M29.6337 58.1193C29.7716 58.1274 29.9022 58.1845 30.0023 58.2806C30.1853 58.4987 30.2847 58.7759 30.2825 59.0617C30.2956 59.3162 30.2186 59.567 30.0653 59.7693C29.9961 59.8392 29.9026 59.8793 29.8047 59.8811C29.3843 59.8811 29.1377 59.3872 29.1377 58.9202C29.1377 58.5608 29.2442 58.3542 29.3339 58.2636C29.4109 58.18 29.5167 58.1294 29.6295 58.1221M29.7038 58.0117C29.472 58.0164 29.2472 58.0935 29.0606 58.2325C28.941 58.3192 28.8443 58.4342 28.7788 58.5674C28.7134 58.7006 28.6812 58.848 28.6851 58.9966C28.681 59.1228 28.7017 59.2485 28.7459 59.3665C28.7902 59.4846 28.8571 59.5926 28.9429 59.6844C29.0435 59.7868 29.1637 59.8672 29.2963 59.9207C29.4289 59.9743 29.5709 59.9998 29.7136 59.9957C29.9592 59.9941 30.1975 59.9111 30.3918 59.7594C30.507 59.6648 30.5989 59.5445 30.6601 59.408C30.7214 59.2714 30.7504 59.1224 30.745 58.9726C30.745 58.5353 30.4002 58.0117 29.7038 58.0117Z" fill="white"/>
<path d="M31.8155 58.145C31.9163 58.1439 32.0163 58.1638 32.1091 58.2035C32.2019 58.2432 32.2857 58.3018 32.355 58.3757C32.4827 58.5475 32.5515 58.7566 32.5512 58.9714C32.5512 59.229 32.4713 59.5375 32.2906 59.679C32.1864 59.7835 32.0465 59.8438 31.8996 59.8474C31.8357 59.835 31.7757 59.8073 31.7245 59.7667C31.7063 59.7505 31.6915 59.7308 31.6812 59.7086C31.6708 59.6865 31.665 59.6624 31.6642 59.6379C31.6558 59.5063 31.653 59.3648 31.653 59.1582V58.7337C31.653 58.4691 31.653 58.3091 31.6642 58.2242C31.6643 58.216 31.6662 58.2079 31.6698 58.2005C31.6735 58.1932 31.6787 58.1868 31.6852 58.1818C31.7243 58.1571 31.7694 58.1438 31.8155 58.1436M31.9557 58.0332C31.7539 58.0332 31.4064 58.0573 31.2648 58.0573H31.0743C31.0336 58.0573 30.9916 58.0771 30.9916 58.1011C30.9916 58.1252 31.0336 58.1492 31.0631 58.1549C31.2172 58.179 31.2256 58.2327 31.241 58.4224C31.2564 58.612 31.241 58.9247 31.2494 59.0747C31.2494 59.1794 31.2494 59.3139 31.2494 59.4908C31.2396 59.7809 31.2228 59.8134 31.0505 59.8375C31.0154 59.8375 30.9678 59.8672 30.9678 59.8913C30.9678 59.9153 31.0028 59.9422 31.0687 59.9422C31.1345 59.9422 31.1836 59.9422 31.2901 59.9422C31.4568 59.9493 31.7679 59.9578 31.8898 59.9578C32.121 59.9605 32.3493 59.9051 32.554 59.7964C32.6962 59.7102 32.8139 59.5883 32.8954 59.4424C32.9769 59.2966 33.0196 59.1318 33.0192 58.9643C33.0133 58.7192 32.9128 58.4861 32.739 58.3148C32.5253 58.1242 32.2477 58.023 31.9627 58.0318" fill="white"/>
<path d="M33.7963 58.0925C33.7963 58.1194 33.8496 58.1434 33.8832 58.1519C33.9953 58.176 34.0233 58.2298 34.0233 58.2864C34.0233 58.343 34.0387 58.8977 34.0387 59.0237C34.0387 59.4906 34.106 59.652 34.2728 59.8076C34.4331 59.9386 34.6358 60.0046 34.8417 59.993C34.9786 59.9973 35.1143 59.9656 35.2354 59.901C35.447 59.7779 35.6012 59.5954 35.625 59.0987C35.625 58.943 35.6488 58.5736 35.6488 58.4279C35.6488 58.2425 35.6867 58.1788 35.838 58.1449C35.8786 58.1364 35.9207 58.1095 35.9207 58.0911C35.9207 58.0727 35.894 58.043 35.8464 58.043C35.7637 58.043 35.6867 58.0585 35.5661 58.0585C35.4723 58.0585 35.3531 58.043 35.2859 58.043C35.2186 58.043 35.2004 58.0642 35.2004 58.0812C35.2004 58.0982 35.2565 58.1364 35.2859 58.1449C35.4106 58.1774 35.4737 58.2255 35.4849 58.3034C35.5005 58.383 35.5057 58.4643 35.5003 58.5453C35.5111 58.8341 35.4942 59.1231 35.4498 59.4086C35.4315 59.5253 35.3688 59.6301 35.2752 59.7009C35.1815 59.7717 35.0642 59.8029 34.9482 59.7878C34.8294 59.7809 34.7151 59.7396 34.6189 59.6689C34.5222 59.5699 34.4507 59.4765 34.4507 59.127C34.4507 58.7024 34.4507 58.4293 34.4619 58.3302C34.4731 58.2312 34.5068 58.1746 34.6133 58.1533C34.6693 58.142 34.7058 58.1151 34.7058 58.0911C34.7058 58.067 34.6763 58.043 34.6189 58.043C34.5614 58.043 34.361 58.0585 34.2517 58.0585C34.1424 58.0585 34.0121 58.043 33.8874 58.043C33.8342 58.043 33.7949 58.067 33.7949 58.0911" fill="white"/>
<path d="M36.9796 58.0601C36.8675 58.0601 36.3994 58.0474 36.342 58.0417C36.292 58.0427 36.243 58.0278 36.2019 57.9993C36.1907 57.9781 36.1724 57.9512 36.1514 57.9512C36.1304 57.9512 36.101 58.0092 36.101 58.0177C36.101 58.1592 36.0449 58.3672 36.0449 58.4252C36.0449 58.455 36.0603 58.4932 36.0954 58.4932C36.1304 58.4932 36.1248 58.4634 36.164 58.404C36.1942 58.3484 36.2289 58.2953 36.2677 58.2455C36.3083 58.2115 36.3564 58.1877 36.4079 58.1762C36.4821 58.1762 36.6741 58.1762 36.7287 58.1889C36.7385 58.1903 36.7475 58.1952 36.7539 58.2028C36.7604 58.2103 36.7639 58.22 36.7638 58.23C36.7638 58.2809 36.7638 58.404 36.7638 58.5738C36.7638 58.8017 36.7498 59.3918 36.7372 59.5644C36.7259 59.7682 36.7077 59.8007 36.5242 59.8474C36.4905 59.8559 36.4527 59.8828 36.4527 59.9154C36.4527 59.9479 36.4905 59.9522 36.548 59.9522C36.6054 59.9522 36.8675 59.9338 36.9333 59.9338L37.4224 59.9465C37.4546 59.9465 37.5023 59.9281 37.5023 59.904C37.4976 59.8882 37.4887 59.8739 37.4766 59.8627C37.4645 59.8515 37.4497 59.8438 37.4336 59.8404C37.2262 59.7993 37.1996 59.73 37.194 59.6522C37.1814 59.4852 37.1758 59.1498 37.1758 58.8031C37.1758 58.5455 37.1758 58.3785 37.1758 58.237C37.1757 58.2282 37.1787 58.2196 37.1844 58.2128C37.19 58.2061 37.1979 58.2016 37.2066 58.2002C37.2977 58.1889 37.4602 58.1861 37.5415 58.1861C37.6718 58.1861 37.7068 58.2186 37.7419 58.3984C37.7573 58.4762 37.7783 58.4903 37.7993 58.4903C37.8203 58.4903 37.8582 58.4309 37.8582 58.404C37.8677 58.286 37.8874 58.169 37.917 58.0545C37.9296 58.012 37.9002 57.9724 37.8848 57.9724C37.8694 57.9724 37.8582 57.9851 37.8344 57.9993C37.7588 58.0323 37.677 58.0477 37.5947 58.0446C37.5079 58.0516 37.1407 58.0545 36.9684 58.0545" fill="white"/>
<path d="M39.0228 58.1193C39.1602 58.1273 39.2904 58.1845 39.3899 58.2806C39.5729 58.4987 39.6723 58.7759 39.6702 59.0617C39.6837 59.316 39.6072 59.5668 39.4544 59.7693C39.3848 59.8387 39.2915 59.8787 39.1937 59.8811C38.7733 59.8811 38.5267 59.3872 38.5267 58.9202C38.5267 58.5608 38.6332 58.3542 38.7215 58.2636C38.7989 58.1797 38.9052 58.1291 39.0186 58.1221M39.0928 58.0117C38.861 58.0164 38.6363 58.0935 38.4496 58.2325C38.3297 58.319 38.2326 58.4339 38.1669 58.5671C38.1012 58.7004 38.0688 58.8479 38.0727 58.9966C38.0651 59.2513 38.1578 59.4987 38.3305 59.6844C38.4312 59.7866 38.5515 59.867 38.684 59.9205C38.8166 59.9741 38.9585 59.9996 39.1012 59.9957C39.3468 59.9941 39.5851 59.9111 39.7795 59.7594C39.8946 59.6648 39.9865 59.5445 40.0478 59.408C40.109 59.2714 40.1381 59.1224 40.1326 58.9726C40.1326 58.5353 39.7893 58.0117 39.0928 58.0117Z" fill="white"/>
<path d="M41.5212 57.8821C41.5708 57.8623 41.6154 57.8313 41.6515 57.7916L41.9318 57.5411C42.006 57.4661 41.9948 57.4208 41.9682 57.4208C41.9319 57.4268 41.8965 57.4378 41.8631 57.4533C41.7594 57.51 41.6263 57.5609 41.5618 57.6062C41.5522 57.6118 41.5414 57.6147 41.5303 57.6147C41.5192 57.6147 41.5083 57.6118 41.4988 57.6062C41.4133 57.5552 41.3096 57.4986 41.2031 57.4449C41.1695 57.4293 41.1334 57.4202 41.0966 57.418C41.0125 57.418 41.0812 57.5071 41.0966 57.517C41.2283 57.6458 41.3376 57.7477 41.3853 57.7916C41.4221 57.835 41.4709 57.8665 41.5254 57.8821M41.5674 58.0081C41.2795 58.003 40.9983 58.0968 40.7701 58.2741C40.6673 58.3627 40.5851 58.473 40.5292 58.5973C40.4732 58.7215 40.445 58.8566 40.4464 58.993C40.4427 59.2383 40.532 59.4757 40.6958 59.6567C40.8129 59.7699 40.9515 59.8581 41.1032 59.9157C41.2549 59.9733 41.4167 59.9993 41.5786 59.9921C41.7526 59.994 41.9255 59.9638 42.0887 59.9029C42.1361 59.8822 42.1754 59.8464 42.2008 59.801C42.2297 59.7213 42.2545 59.64 42.2751 59.5576C42.2835 59.5251 42.2877 59.4416 42.254 59.4416C42.2204 59.4416 42.2008 59.4742 42.163 59.5435C42.1075 59.6533 42.0219 59.7447 41.9163 59.8067C41.8324 59.8475 41.7405 59.8688 41.6473 59.869C41.5135 59.8682 41.3829 59.8275 41.2719 59.752C41.1609 59.6764 41.0746 59.5694 41.0237 59.4444C40.9532 59.2833 40.9192 59.1083 40.9242 58.9322C40.9242 58.4737 41.1078 58.1114 41.573 58.1114C41.7302 58.1175 41.8797 58.1814 41.9934 58.2911C42.0511 58.3486 42.0939 58.4196 42.1181 58.4977C42.1363 58.5458 42.163 58.5826 42.1812 58.5826C42.1994 58.5826 42.2372 58.5218 42.2344 58.4595L42.219 58.1765C42.219 58.1439 42.198 58.1043 42.177 58.1015C42.1071 58.095 42.0377 58.0832 41.9696 58.0661C41.8375 58.0308 41.7013 58.0137 41.5646 58.0152" fill="white"/>
<path d="M42.7625 58.9271C42.7625 59.1818 42.7625 59.4931 42.7513 59.6063C42.74 59.7196 42.7218 59.8016 42.5915 59.8342C42.5256 59.8526 42.499 59.8724 42.499 59.8936C42.499 59.9148 42.5228 59.9474 42.5999 59.9474C42.7092 59.9474 42.8283 59.9389 42.9138 59.9389C43.0539 59.9389 43.2585 59.9502 43.3594 59.9545C43.3944 59.9545 43.4561 59.9474 43.4561 59.912C43.4561 59.8766 43.4267 59.8582 43.3734 59.8427C43.2165 59.7988 43.1983 59.7719 43.1842 59.5894C43.1842 59.5016 43.1744 59.3969 43.1744 58.9398C43.1744 58.4827 43.1744 58.3978 43.1842 58.337C43.1821 58.3146 43.1846 58.2921 43.1914 58.2707C43.1983 58.2493 43.2094 58.2296 43.2241 58.2128C43.2389 58.1959 43.2568 58.1823 43.277 58.1728C43.2971 58.1632 43.319 58.1579 43.3412 58.1573C43.3916 58.1488 43.4393 58.1247 43.4393 58.0922C43.4393 58.0596 43.3888 58.0469 43.3384 58.0469C43.2347 58.0469 43.1156 58.0596 42.9699 58.0596C42.8732 58.0596 42.7148 58.0469 42.6237 58.0469C42.5649 58.0469 42.5172 58.0681 42.5172 58.0922C42.5172 58.1162 42.5383 58.1374 42.6125 58.1573C42.7527 58.194 42.7527 58.2422 42.7527 58.3851C42.7527 58.528 42.7527 58.7898 42.7527 58.9271" fill="white"/>
<path d="M44.3517 57.9134C44.4014 57.8935 44.4459 57.8626 44.482 57.8228L44.7623 57.5723C44.8366 57.4973 44.8253 57.4521 44.7987 57.4521C44.7628 57.4581 44.728 57.469 44.695 57.4846C44.5913 57.5426 44.4568 57.5936 44.3923 57.6374C44.383 57.643 44.3724 57.646 44.3615 57.646C44.3507 57.646 44.34 57.643 44.3307 57.6374C44.2438 57.5865 44.1401 57.5299 44.0336 57.4761C43.9998 57.4612 43.9639 57.4521 43.9271 57.4492C43.8444 57.4492 43.9117 57.5384 43.9271 57.5483C44.0574 57.6771 44.1667 57.7789 44.2144 57.8228C44.2509 57.8666 44.2998 57.8982 44.3545 57.9134M44.405 58.0096C44.2304 57.9962 44.0569 58.0464 43.9159 58.1511C43.8571 58.2004 43.8098 58.2623 43.7776 58.3323C43.7454 58.4023 43.729 58.4787 43.7295 58.5558C43.7295 58.8276 43.8837 58.9804 44.213 59.2054C44.4638 59.3752 44.5269 59.4884 44.5269 59.6115C44.522 59.6838 44.4905 59.7516 44.4387 59.8016C44.3868 59.8516 44.3183 59.8802 44.2466 59.8818C44.1563 59.878 44.0689 59.8485 43.9946 59.7966C43.9202 59.7448 43.8618 59.6728 43.8262 59.5889C43.78 59.4955 43.7323 59.4262 43.7057 59.4262C43.6791 59.4262 43.6553 59.4714 43.6553 59.4927C43.6598 59.6071 43.6776 59.7207 43.7085 59.8309C43.73 59.8643 43.7581 59.8927 43.7912 59.9144C43.9322 59.9717 44.0836 59.9982 44.2354 59.9922C44.3821 59.9914 44.5264 59.9545 44.6558 59.8847C44.7345 59.8396 44.8006 59.7751 44.8476 59.6971C44.8947 59.619 44.9213 59.5302 44.9248 59.4389C44.9248 59.2974 44.908 59.0879 44.4778 58.8276C44.2074 58.6634 44.0869 58.5643 44.0869 58.403C44.0882 58.3274 44.1178 58.2552 44.1699 58.2008C44.2219 58.1464 44.2924 58.114 44.3671 58.1101C44.4585 58.1069 44.5475 58.1399 44.6152 58.2021C44.6726 58.2615 44.7145 58.3345 44.7371 58.4143C44.7445 58.4337 44.7571 58.4507 44.7734 58.4634C44.7897 58.4761 44.8091 58.4841 44.8295 58.4865C44.8436 58.4865 44.8562 58.4596 44.8562 58.4143C44.8562 58.403 44.8267 58.1483 44.8267 58.1157C44.8185 58.0918 44.8051 58.0701 44.7875 58.0521C44.6613 58.0272 44.5334 58.0116 44.405 58.0054" fill="white"/>
<path d="M46.0177 58.0601C45.9056 58.0601 45.4361 58.0474 45.3801 58.0417C45.3301 58.043 45.281 58.0281 45.24 57.9993C45.2287 57.9781 45.2105 57.9512 45.1895 57.9512C45.1685 57.9512 45.1391 58.0092 45.1391 58.0177C45.1391 58.1592 45.083 58.3672 45.083 58.4252C45.083 58.455 45.0984 58.4932 45.1335 58.4932C45.1685 58.4932 45.1629 58.4634 45.2021 58.404C45.2323 58.3484 45.2669 58.2953 45.3058 58.2455C45.3463 58.2113 45.3943 58.1875 45.4459 58.1762C45.5202 58.1762 45.7122 58.1762 45.7654 58.1889C45.7755 58.19 45.7847 58.1947 45.7915 58.2023C45.7982 58.2099 45.8019 58.2198 45.8019 58.23C45.8019 58.2809 45.8019 58.404 45.8019 58.5738C45.8019 58.8017 45.7865 59.3918 45.7752 59.5644C45.7626 59.7682 45.7458 59.8007 45.5622 59.8474C45.5286 59.8559 45.4908 59.8828 45.4908 59.9154C45.4908 59.9479 45.5286 59.9522 45.5847 59.9522C45.6407 59.9522 45.9056 59.9338 45.97 59.9338C46.0345 59.9338 46.4366 59.9465 46.4591 59.9465C46.4815 59.9465 46.5403 59.9281 46.5403 59.904C46.5356 59.8882 46.5268 59.8739 46.5147 59.8627C46.5026 59.8515 46.4877 59.8438 46.4717 59.8404C46.2643 59.7993 46.2377 59.73 46.2321 59.6522C46.2194 59.4852 46.2138 59.1498 46.2138 58.8031C46.2138 58.5455 46.2138 58.3785 46.2138 58.237C46.2134 58.2283 46.2161 58.2197 46.2216 58.2129C46.227 58.2061 46.2347 58.2016 46.2433 58.2002C46.3358 58.1889 46.4983 58.1861 46.5782 58.1861C46.7085 58.1861 46.7449 58.2186 46.78 58.3984C46.7954 58.4762 46.815 58.4903 46.836 58.4903C46.857 58.4903 46.8963 58.4309 46.8963 58.404C46.9058 58.286 46.9255 58.169 46.9551 58.0545C46.9663 58.012 46.9369 57.9724 46.9229 57.9724C46.9089 57.9724 46.8963 57.9851 46.8724 57.9993C46.7964 58.0322 46.7141 58.0476 46.6314 58.0446C46.5459 58.0516 46.1788 58.0545 46.0065 58.0545" fill="white"/>
<path d="M47.8944 59.1308C47.8019 59.1308 47.5945 59.1308 47.4824 59.1308C47.4785 59.1303 47.4746 59.129 47.4712 59.1269C47.4677 59.1248 47.4648 59.122 47.4625 59.1186C47.4603 59.1153 47.4588 59.1115 47.4581 59.1075C47.4574 59.1035 47.4576 59.0994 47.4586 59.0954C47.4712 59.0346 47.6072 58.6794 47.6632 58.5294C47.6716 58.5053 47.6926 58.494 47.6982 58.5181C47.7459 58.6398 47.865 58.9638 47.907 59.0954C47.9085 59.1007 47.908 59.1063 47.9057 59.1113C47.9034 59.1162 47.8994 59.1201 47.8944 59.1223M47.8944 58.0001C47.8827 58.0016 47.8716 58.0058 47.8618 58.0124C47.8521 58.0191 47.844 58.0279 47.8384 58.0383C47.8173 58.0709 47.7108 58.1883 47.6744 58.2294C47.6653 58.2415 47.6577 58.2549 47.652 58.269L47.6338 58.3199C47.5147 58.603 47.2008 59.4308 47.1265 59.5709C47.0438 59.7393 47.0116 59.8044 46.8603 59.844C46.7916 59.861 46.7832 59.8794 46.7832 59.9035C46.7832 59.9275 46.8 59.9417 46.8771 59.9417C46.9219 59.9417 47.0466 59.9304 47.1573 59.9304C47.268 59.9304 47.3423 59.9304 47.3956 59.9304C47.4488 59.9304 47.4866 59.9134 47.4866 59.8921C47.4866 59.8709 47.4628 59.844 47.4012 59.8285C47.3003 59.8016 47.261 59.7662 47.261 59.694C47.2749 59.5586 47.3129 59.4267 47.3731 59.3049C47.3731 59.2936 47.397 59.2723 47.4054 59.2723C47.439 59.2723 47.5245 59.2596 47.9126 59.2638C47.9342 59.2756 47.9525 59.2926 47.9659 59.3134C48.02 59.443 48.0617 59.5776 48.0906 59.7153C48.0906 59.7577 48.0906 59.7987 47.9687 59.8285C47.9126 59.844 47.8916 59.8681 47.8916 59.8822C47.8916 59.8964 47.9337 59.9304 47.9869 59.9304C48.064 59.9304 48.2181 59.9304 48.3162 59.9304C48.3905 59.9304 48.6483 59.9417 48.7128 59.9417C48.7772 59.9417 48.8109 59.9162 48.8109 59.895C48.8109 59.8738 48.7814 59.8525 48.731 59.837C48.6441 59.8101 48.5712 59.7747 48.4759 59.5355C48.4101 59.3742 48.2181 58.852 48.0556 58.3765C48.0261 58.2902 47.9729 58.1247 47.9435 58.0596C47.914 57.9945 47.9084 58.0001 47.8902 58.0001" fill="white"/>
</g>
</g>
<defs>
<clipPath id="clip0_141_194">
<rect width="49" height="60" fill="white"/>
</clipPath>
</defs>
</svg>
